<mxfile host="app.diagrams.net" agent="Mozilla/5.0 (Macintosh; Intel Mac OS X 10_15_7) AppleWebKit/537.36 (KHTML, like Gecko) Chrome/128.0.0.0 Safari/537.36" version="24.7.16">
  <diagram name="PÃ¡gina-1" id="0j1zbgsldoV-gz4mIciF">
    <mxGraphModel dx="836" dy="508" grid="1" gridSize="10" guides="1" tooltips="1" connect="1" arrows="1" fold="1" page="1" pageScale="1" pageWidth="827" pageHeight="1169" math="0" shadow="0">
      <root>
        <mxCell id="0" />
        <mxCell id="1" parent="0" />
        <mxCell id="GEaR0k6TN6RAge_JhpDG-3" value="" style="edgeStyle=orthogonalEdgeStyle;rounded=0;orthogonalLoop=1;jettySize=auto;html=1;" edge="1" parent="1" source="GEaR0k6TN6RAge_JhpDG-1" target="GEaR0k6TN6RAge_JhpDG-2">
          <mxGeometry relative="1" as="geometry" />
        </mxCell>
        <mxCell id="GEaR0k6TN6RAge_JhpDG-1" value="INICIO" style="strokeWidth=2;html=1;shape=mxgraph.flowchart.start_2;whiteSpace=wrap;" vertex="1" parent="1">
          <mxGeometry x="360" y="200" width="100" height="100" as="geometry" />
        </mxCell>
        <mxCell id="GEaR0k6TN6RAge_JhpDG-5" value="" style="edgeStyle=orthogonalEdgeStyle;rounded=0;orthogonalLoop=1;jettySize=auto;html=1;" edge="1" parent="1" source="GEaR0k6TN6RAge_JhpDG-2" target="GEaR0k6TN6RAge_JhpDG-4">
          <mxGeometry relative="1" as="geometry" />
        </mxCell>
        <mxCell id="GEaR0k6TN6RAge_JhpDG-2" value="Mostrar mensaje:&amp;nbsp;&lt;div&gt;&quot;Por favor, ingresar las medidas de la pieza del mueble (en cms): &quot;&lt;/div&gt;" style="shape=parallelogram;perimeter=parallelogramPerimeter;whiteSpace=wrap;html=1;fixedSize=1;strokeWidth=2;" vertex="1" parent="1">
          <mxGeometry x="290" y="400" width="240" height="120" as="geometry" />
        </mxCell>
        <mxCell id="GEaR0k6TN6RAge_JhpDG-7" value="" style="edgeStyle=orthogonalEdgeStyle;rounded=0;orthogonalLoop=1;jettySize=auto;html=1;" edge="1" parent="1" source="GEaR0k6TN6RAge_JhpDG-4" target="GEaR0k6TN6RAge_JhpDG-6">
          <mxGeometry relative="1" as="geometry" />
        </mxCell>
        <mxCell id="GEaR0k6TN6RAge_JhpDG-4" value="Convertir medida_en_pulgadas = medida_en_cms / 2.54" style="whiteSpace=wrap;html=1;strokeWidth=2;" vertex="1" parent="1">
          <mxGeometry x="300" y="630" width="220" height="100" as="geometry" />
        </mxCell>
        <mxCell id="GEaR0k6TN6RAge_JhpDG-9" value="" style="edgeStyle=orthogonalEdgeStyle;rounded=0;orthogonalLoop=1;jettySize=auto;html=1;" edge="1" parent="1" source="GEaR0k6TN6RAge_JhpDG-6" target="GEaR0k6TN6RAge_JhpDG-8">
          <mxGeometry relative="1" as="geometry" />
        </mxCell>
        <mxCell id="GEaR0k6TN6RAge_JhpDG-6" value="Mostrar mensaje:&amp;nbsp;&lt;div&gt;&quot;Las medidas en pulgadas de la pieza ingresada son:&quot;, medida_en_pulgadas&lt;/div&gt;" style="shape=parallelogram;perimeter=parallelogramPerimeter;whiteSpace=wrap;html=1;fixedSize=1;strokeWidth=2;" vertex="1" parent="1">
          <mxGeometry x="290" y="830" width="240" height="110" as="geometry" />
        </mxCell>
        <mxCell id="GEaR0k6TN6RAge_JhpDG-8" value="FIN" style="ellipse;whiteSpace=wrap;html=1;strokeWidth=2;" vertex="1" parent="1">
          <mxGeometry x="350" y="1030" width="120" height="110" as="geometry" />
        </mxCell>
      </root>
    </mxGraphModel>
  </diagram>
</mxfile>
